<?xml version="1.0" standalone="no"?>
<!DOCTYPE svg PUBLIC "-//W3C//DTD SVG 20010904//EN"
 "http://www.w3.org/TR/2001/REC-SVG-20010904/DTD/svg10.dtd">
<svg version="1.0" xmlns="http://www.w3.org/2000/svg"
 width="1088.000000pt" height="1088.000000pt" viewBox="0 0 1088.000000 1088.000000"
 preserveAspectRatio="xMidYMid meet">
<metadata>
Created by potrace 1.14, written by Peter Selinger 2001-2017
</metadata>
<g transform="translate(0.000000,1088.000000) scale(0.100000,-0.100000)"
fill="#000000" stroke="none">
<path d="M4318 8615 c-2 -1 -50 -6 -108 -10 -111 -8 -155 -12 -155 -15 0 0
-20 -3 -45 -6 -57 -5 -87 -10 -220 -35 -86 -16 -91 -17 -213 -49 -128 -33
-260 -76 -382 -123 -44 -17 -82 -32 -85 -32 -40 -10 -430 -206 -430 -216 0 -5
-9 -9 -20 -9 -11 0 -23 -7 -26 -15 -4 -8 -11 -15 -16 -15 -18 0 -217 -139
-337 -235 -124 -99 -327 -306 -434 -440 -48 -60 -93 -116 -99 -124 -44 -53
-209 -315 -225 -356 -3 -11 -14 -27 -22 -37 -9 -10 -15 -21 -13 -24 1 -2 -10
-28 -26 -57 -61 -111 -188 -442 -196 -512 -2 -11 -6 -27 -9 -35 -10 -26 -37
-137 -39 -164 -1 -14 -6 -26 -11 -26 -4 0 -6 -3 -4 -7 3 -5 -1 -44 -9 -88 -35
-201 -47 -361 -47 -630 1 -216 5 -287 27 -450 4 -22 8 -58 11 -80 3 -22 7 -51
10 -65 13 -64 17 -86 20 -105 1 -11 4 -27 7 -35 3 -8 16 -58 28 -110 13 -52
36 -135 52 -185 16 -49 30 -94 31 -100 1 -5 5 -13 10 -16 4 -3 9 -15 12 -27 2
-12 7 -28 12 -35 4 -6 9 -20 10 -31 2 -10 10 -30 18 -45 8 -14 36 -71 63 -126
27 -55 64 -125 81 -155 17 -30 37 -66 44 -80 6 -14 16 -30 22 -36 5 -6 19 -27
30 -47 11 -20 23 -37 27 -37 5 0 8 -5 8 -11 0 -5 15 -30 32 -54 18 -24 44 -60
58 -80 14 -20 32 -44 40 -53 9 -9 33 -39 55 -67 104 -131 325 -353 443 -443
17 -13 45 -36 64 -52 18 -16 36 -30 40 -30 4 0 13 -6 20 -13 7 -7 42 -33 78
-57 36 -25 67 -48 70 -51 3 -4 15 -9 28 -13 12 -4 22 -11 22 -16 0 -4 8 -10
18 -14 9 -3 31 -14 47 -24 97 -61 213 -121 345 -179 101 -45 135 -58 225 -93
11 -4 40 -14 65 -21 25 -7 50 -15 55 -18 6 -3 19 -7 30 -9 36 -6 40 -8 51 -14
6 -4 33 -12 60 -18 27 -7 58 -14 69 -16 53 -13 71 -17 85 -19 8 -1 22 -5 30
-8 8 -3 33 -8 55 -12 60 -9 97 -16 125 -21 14 -3 45 -7 70 -10 25 -2 61 -7 80
-10 199 -34 744 -39 965 -8 17 2 50 6 75 9 25 3 61 8 80 11 19 3 51 7 70 9 19
2 36 4 38 5 1 2 7 4 12 5 6 1 13 4 18 5 4 1 10 2 14 1 4 0 36 6 70 14 35 9 76
18 92 20 16 2 54 12 85 21 31 9 63 18 71 18 9 1 20 5 25 8 6 3 45 16 88 28 42
13 77 27 77 31 0 5 7 6 15 3 8 -4 15 -1 15 7 0 7 3 10 6 6 6 -6 53 10 129 44
28 12 50 21 50 19 0 -2 74 35 165 82 153 79 205 109 270 155 14 10 27 18 30
18 8 0 115 79 118 87 2 5 8 8 13 8 9 0 27 14 75 55 12 11 34 28 48 39 26 19
41 32 132 117 62 59 180 182 221 233 31 38 31 41 15 56 -173 156 -229 210
-224 214 3 3 1 6 -5 6 -5 0 -24 13 -41 28 -39 35 -213 195 -302 278 -83 77
-109 102 -210 194 -45 41 -93 85 -106 97 l-24 22 -138 -137 c-135 -136 -313
-280 -402 -324 -25 -13 -47 -26 -50 -30 -3 -4 -47 -28 -98 -53 -135 -67 -365
-141 -502 -162 -19 -3 -53 -8 -76 -12 -22 -4 -52 -7 -67 -7 -15 1 -27 -1 -27
-5 0 -8 -439 -4 -500 5 -25 4 -61 9 -80 12 -19 3 -44 7 -55 8 -11 2 -33 6 -50
10 -16 3 -40 9 -52 11 -13 3 -31 7 -40 10 -10 2 -38 9 -62 15 -24 6 -52 15
-62 20 -10 6 -29 11 -43 12 -15 1 -26 6 -26 11 0 4 -4 5 -10 2 -5 -3 -10 -1
-10 4 0 6 -9 11 -20 11 -11 0 -28 4 -38 9 -9 5 -64 32 -122 60 -111 54 -112
55 -202 114 -31 20 -61 37 -67 37 -5 0 -11 3 -13 8 -1 4 -37 35 -78 69 -41 33
-84 72 -96 85 -12 14 -30 31 -40 39 -11 8 -48 48 -83 89 -36 41 -67 77 -70 80
-3 3 -10 12 -16 21 -5 9 -37 57 -70 105 -100 149 -230 437 -249 551 -2 16 -5
28 -6 28 -1 0 -7 29 -13 63 -1 9 -6 23 -10 30 -5 6 -6 12 -4 12 2 0 0 21 -5
48 -30 163 -42 491 -24 652 4 36 10 85 12 110 2 25 10 74 18 110 8 35 12 68
10 72 -3 4 -1 8 4 8 5 0 12 17 15 38 8 54 12 69 45 162 34 97 83 211 98 231 6
8 23 39 39 69 30 60 136 221 163 249 9 9 33 37 52 61 59 73 178 188 255 245
22 17 42 33 45 36 12 15 191 125 255 157 97 48 225 102 225 95 0 -3 6 -1 13 5
11 9 169 58 222 68 99 19 125 24 160 29 68 11 98 14 173 19 41 2 76 7 79 10 4
3 12 1 20 -5 7 -6 13 -7 13 -3 0 14 294 4 370 -11 14 -3 43 -8 65 -11 60 -9
273 -63 314 -80 20 -9 43 -17 51 -19 8 -1 45 -17 83 -34 37 -17 72 -31 77 -31
6 0 10 -5 10 -10 0 -6 3 -9 8 -8 8 2 64 -23 72 -32 3 -4 20 -12 38 -19 17 -8
32 -17 32 -21 0 -4 11 -11 25 -14 14 -4 25 -11 25 -16 0 -6 4 -10 10 -10 18 0
177 -117 228 -167 17 -17 32 -30 32 -27 0 3 49 -44 109 -104 l110 -111 52 47
c29 26 69 63 89 82 96 90 163 152 249 230 51 47 108 99 126 115 17 17 85 80
151 140 65 61 130 121 145 135 15 14 48 44 72 67 l45 41 -26 33 c-136 163
-332 345 -516 476 -56 40 -112 78 -126 85 -14 7 -27 16 -30 19 -6 6 -192 113
-200 115 -3 0 -49 21 -102 47 -54 26 -100 47 -103 47 -3 0 -24 9 -48 20 -23
10 -80 33 -127 50 -47 17 -92 33 -100 37 -8 3 -19 7 -25 8 -5 2 -37 11 -70 21
-33 10 -64 19 -70 20 -5 1 -37 9 -70 18 -61 17 -81 22 -125 31 -14 2 -38 7
-55 11 -16 3 -41 7 -55 9 -14 2 -25 4 -25 5 0 2 -23 6 -75 13 -25 4 -58 9 -75
11 -16 2 -61 7 -100 11 -38 4 -86 9 -105 12 -42 5 -577 13 -582 8z"/>
<path d="M8727 4144 c-1 -1 -27 -5 -57 -8 -151 -15 -307 -73 -444 -164 -69
-47 -200 -169 -246 -231 -73 -100 -140 -267 -158 -396 -9 -65 -9 -305 0 -374
10 -75 50 -208 80 -265 50 -96 84 -149 133 -205 61 -70 150 -151 166 -151 5 0
9 -5 9 -12 0 -6 3 -9 6 -5 3 3 17 -4 31 -16 13 -12 28 -22 31 -22 4 -1 34 -15
67 -32 64 -33 138 -61 195 -73 19 -5 46 -11 60 -14 108 -26 313 -21 450 9 14
3 36 8 49 11 14 3 29 8 35 12 6 3 17 7 24 8 31 5 170 78 231 122 81 57 183
160 234 235 38 56 97 163 96 173 -1 3 3 17 9 32 6 15 13 36 18 47 4 11 8 25
10 32 1 6 7 35 14 65 16 75 22 121 24 213 1 72 -2 116 -18 241 -9 71 -67 226
-114 303 -43 72 -237 281 -261 281 -5 0 -16 6 -24 14 -13 14 -189 111 -194
108 -2 -1 -4 -2 -5 -1 -2 0 -10 2 -18 4 -8 3 -45 13 -83 24 -37 11 -97 23
-135 27 -67 7 -210 12 -215 8z"/>
</g>
</svg>
